<svg width="44" height="44" viewBox="0 0 44 44" fill="none" xmlns="http://www.w3.org/2000/svg">


    <!-- // skills-->

    <g id="html5">
        <path d="M37.2872 8.56567L34.4741 40.0798L21.829 43.5854L9.21871 40.0847L6.40851 8.56567H37.2872Z" fill="#E44D26"/>
        <path d="M21.8478 40.9058L32.0657 38.0731L34.4696 11.1428H21.8478V40.9058Z" fill="#F16529"/>
        <path d="M16.3792 18.8742H21.8478V15.0085H12.1545L12.247 16.0456L13.1972 26.6984H21.8478V22.8327H16.7325L16.3792 18.8742ZM17.2505 28.6313H13.3699L13.9114 34.701L21.83 36.8991L21.8478 36.8943V32.8723L21.8309 32.8768L17.5257 31.7143L17.2505 28.6313Z" fill="#EBEBEB"/>
        <path d="M9.28137 0.00012207H11.2459V1.94101H13.043V0.00012207H15.0076V5.87761H13.0431V3.90949H11.246V5.87761H9.28149V0.00012207H9.28137ZM17.5908 1.94924H15.8616V0.00012207H21.2859V1.94924H19.5557V5.87761H17.5912V1.94924H17.5911H17.5908ZM22.1468 0.00012207H24.1951L25.4552 2.06532L26.714 0.00012207H28.7632V5.87761H26.8067V2.9644L25.4552 5.05417H25.4213L24.0689 2.9644V5.87761H22.1468V0.00012207ZM29.7409 0.00012207H31.706V3.93491H34.4686V5.87761H29.7407V0.00012207H29.7409Z" fill="black"/>
        <path d="M21.8345 26.6984H26.5946L26.1458 31.7119L21.8344 32.8756V36.8973L29.7592 34.701L29.8173 34.0479L30.7259 23.8708L30.8202 22.8327H21.8345V26.6984ZM21.8345 18.8648V18.8742H31.1719L31.2494 18.0054L31.4256 16.0456L31.518 15.0085H21.8345V18.8649V18.8648Z" fill="white"/>
    </g>

    <g id="css3">
        <path d="M39.3687 45.5357L26.1737 49.0886L12.9785 45.5357L9.93365 12.5482H42.414L39.3687 45.5357Z" fill="#2062AF"/>
        <path d="M26.1736 15.2202V46.2549L26.2034 46.263L36.8816 43.3876L39.3463 15.2202H26.1736Z" fill="#3C9CD7"/>
        <path d="M18.685 7.70169V5.73828H21.5496V3.58984H16.5366V9.66219H21.5496V7.70169H18.685ZM26.7027 5.73828H28.7055V3.58984H23.6919V5.73828C24.3627 6.40902 24.7125 6.73006 25.6826 7.70014C25.1155 7.70014 23.6919 7.70217 23.6919 7.70208V9.66219H28.7055V7.70169L26.7027 5.73828ZM33.8085 5.73828H35.8112V3.58984H30.7974V5.73828C31.4682 6.40902 31.8182 6.73006 32.7883 7.70014C32.2214 7.70014 30.7974 7.70217 30.7974 7.70208V9.66219H35.8113V7.70169L33.8085 5.73828Z" fill="black"/>
        <path d="M26.1619 23.4683L16.7178 27.4016L17.031 31.2957L26.1619 27.3917L35.8748 23.239L36.2775 19.2554L26.1619 23.4683Z" fill="white"/>
        <path d="M16.7177 27.4016L17.0309 31.2958L26.1618 27.3917V23.4684L16.7177 27.4016Z" fill="white"/>
        <path d="M36.2775 19.2555L26.1619 23.4684V27.3917L35.8748 23.239L36.2775 19.2555Z" fill="white"/>
        <path d="M16.7322 27.4016L17.0455 31.2958L31.0557 31.3404L30.7423 36.5326L26.1322 37.8305L21.7004 36.7115L21.4319 33.4888H17.3141L17.8512 39.7104L26.1769 42.1721L34.4575 39.7551L35.5318 27.4016H16.7322Z" fill="white"/>
        <path opacity="0.05" d="M26.1619 27.4016H16.7178L17.031 31.2958L26.1619 31.3249V27.4016ZM26.1619 37.8181L26.1172 37.8306L21.686 36.7116L21.4175 33.4889H17.2997L17.8368 39.7105L26.1619 42.1722V37.8181Z" fill="black"/>
        <path d="M15.8673 19.2555H36.2776L35.8749 23.2391H16.3596L15.8673 19.2555Z" fill="white"/>
        <path opacity="0.05" d="M26.1619 19.2555H15.8673L16.3596 23.2391H26.1619V19.2555Z" fill="black"/>
        <defs>
            <linearGradient id="paint0_linear_1_4709" x1="21.4398" y1="31.2959" x2="21.4398" y2="23.4685" gradientUnits="userSpaceOnUse">
                <stop offset="0.387" stop-color="#D1D3D4" stop-opacity="0"/>
                <stop offset="1" stop-color="#D1D3D4"/>
            </linearGradient>
            <linearGradient id="paint1_linear_1_4709" x1="31.2196" y1="27.3918" x2="31.2196" y2="19.2556" gradientUnits="userSpaceOnUse">
                <stop offset="0.387" stop-color="#D1D3D4" stop-opacity="0"/>
                <stop offset="1" stop-color="#D1D3D4"/>
            </linearGradient>
            <linearGradient id="paint2_linear_1_4709" x1="16.7322" y1="34.787" x2="35.5317" y2="34.787" gradientUnits="userSpaceOnUse">
                <stop stop-color="#E8E7E5"/>
                <stop offset="1" stop-color="white"/>
            </linearGradient>
            <linearGradient id="paint3_linear_1_4709" x1="15.8673" y1="21.2473" x2="36.2775" y2="21.2473" gradientUnits="userSpaceOnUse">
                <stop stop-color="#E8E7E5"/>
                <stop offset="1" stop-color="white"/>
            </linearGradient>
        </defs>
<!--        <path d="M39.3687 45.5357L26.1737 49.0886L12.9785 45.5357L9.93365 12.5482H42.414L39.3687 45.5357Z" fill="#2062AF"/>-->
<!--        <path d="M26.1736 15.2202V46.2549L26.2034 46.263L36.8816 43.3876L39.3463 15.2202H26.1736Z" fill="#3C9CD7"/>-->
<!--        <path d="M18.685 7.70169V5.73828H21.5496V3.58984H16.5366V9.66219H21.5496V7.70169H18.685ZM26.7027 5.73828H28.7055V3.58984H23.6919V5.73828C24.3627 6.40902 24.7125 6.73006 25.6826 7.70014C25.1155 7.70014 23.6919 7.70217 23.6919 7.70208V9.66219H28.7055V7.70169L26.7027 5.73828ZM33.8085 5.73828H35.8112V3.58984H30.7974V5.73828C31.4682 6.40902 31.8182 6.73006 32.7883 7.70014C32.2214 7.70014 30.7974 7.70217 30.7974 7.70208V9.66219H35.8113V7.70169L33.8085 5.73828Z" fill="black"/>-->
<!--        <path d="M26.1619 23.4683L16.7178 27.4016L17.031 31.2957L26.1619 27.3917L35.8748 23.239L36.2775 19.2554L26.1619 23.4683Z" fill="white"/>-->
<!--        <path d="M16.7177 27.4016L17.0309 31.2958L26.1618 27.3917V23.4684L16.7177 27.4016Z" fill="url(#paint0_linear_1_4709)"/>-->
<!--        <path d="M36.2775 19.2555L26.1619 23.4684V27.3917L35.8748 23.239L36.2775 19.2555Z" fill="url(#paint1_linear_1_4709)"/>-->
<!--        <path d="M16.7322 27.4016L17.0455 31.2958L31.0557 31.3404L30.7423 36.5326L26.1322 37.8305L21.7004 36.7115L21.4319 33.4888H17.3141L17.8512 39.7104L26.1769 42.1721L34.4575 39.7551L35.5318 27.4016H16.7322Z" fill="url(#paint2_linear_1_4709)"/>-->
<!--        <path opacity="0.05" d="M26.1619 27.4016H16.7178L17.031 31.2958L26.1619 31.3249V27.4016ZM26.1619 37.8181L26.1172 37.8306L21.686 36.7116L21.4175 33.4889H17.2997L17.8368 39.7105L26.1619 42.1722V37.8181Z" fill="black"/>-->
<!--        <path d="M15.8673 19.2555H36.2776L35.8749 23.2391H16.3596L15.8673 19.2555Z" fill="url(#paint3_linear_1_4709)"/>-->
<!--        <path opacity="0.05" d="M26.1619 19.2555H15.8673L16.3596 23.2391H26.1619V19.2555Z" fill="black"/>-->
<!--        <linearGradient id="paint0_linear_1_4709" x1="21.4398" y1="31.2959" x2="21.4398" y2="23.4685" gradientUnits="userSpaceOnUse">-->
<!--            <stop offset="0.387" stop-color="#D1D3D4" stop-opacity="0"/>-->
<!--            <stop offset="1" stop-color="#D1D3D4"/>-->
<!--        </linearGradient>-->
<!--        <linearGradient id="paint1_linear_1_4709" x1="31.2196" y1="27.3918" x2="31.2196" y2="19.2556" gradientUnits="userSpaceOnUse">-->
<!--            <stop offset="0.387" stop-color="#D1D3D4" stop-opacity="0"/>-->
<!--            <stop offset="1" stop-color="#D1D3D4"/>-->
<!--        </linearGradient>-->
<!--        <linearGradient id="paint2_linear_1_4709" x1="16.7322" y1="34.787" x2="35.5317" y2="34.787" gradientUnits="userSpaceOnUse">-->
<!--            <stop stop-color="#E8E7E5"/>-->
<!--            <stop offset="1" stop-color="white"/>-->
<!--        </linearGradient>-->
<!--        <linearGradient id="paint3_linear_1_4709" x1="15.8673" y1="21.2473" x2="36.2775" y2="21.2473" gradientUnits="userSpaceOnUse">-->
<!--            <stop stop-color="#E8E7E5"/>-->
<!--            <stop offset="1" stop-color="white"/>-->
<!--        </linearGradient>-->
    </g>


        <g id="bootstrap">
            <path d="M0.260956 34.5055C0.260956 37.2923 2.51997 39.551 5.30649 39.551H34.3457C37.1327 39.551 39.3914 37.292 39.3914 34.5055V5.46628C39.3914 2.67931 37.1324 0.420593 34.3459 0.420593H5.30664C2.51967 0.420593 0.260956 2.67961 0.260956 5.46613V34.5053V34.5055Z" fill="#563D7C"/>
            <path d="M16.4876 17.7294V12.188H21.3653C21.8299 12.188 22.2778 12.2267 22.7091 12.3042C23.1405 12.3815 23.5222 12.5197 23.854 12.7189C24.1857 12.9181 24.4512 13.1946 24.6504 13.5484C24.8494 13.9024 24.9491 14.3559 24.9491 14.9088C24.9491 15.9044 24.6504 16.6234 24.053 17.0657C23.4558 17.5082 22.6926 17.7294 21.7634 17.7294H16.4876ZM11.2779 8.13971V31.832H22.759C23.8209 31.832 24.8551 31.6993 25.8616 31.4338C26.8681 31.1683 27.764 30.7591 28.5494 30.2061C29.3346 29.653 29.9596 28.9395 30.4241 28.0658C30.8888 27.192 31.121 26.1577 31.121 24.9632C31.121 23.481 30.7615 22.2146 30.0426 21.1639C29.3236 20.113 28.234 19.3775 26.774 18.9571C27.8358 18.4484 28.6379 17.7958 29.1799 16.9994C29.7218 16.203 29.9928 15.2076 29.9928 14.0129C29.9928 12.9069 29.8103 11.9779 29.4452 11.2257C29.0802 10.4736 28.5659 9.87077 27.9022 9.41726C27.2387 8.96374 26.4423 8.6374 25.5131 8.43838C24.584 8.23922 23.5553 8.13971 22.4271 8.13971H11.2779ZM16.4876 27.7836V21.2799H22.1616C23.2898 21.2799 24.1969 21.5397 24.8827 22.0598C25.5684 22.5796 25.9114 23.4478 25.9114 24.6645C25.9114 25.284 25.8063 25.7927 25.5961 26.1909C25.3859 26.5891 25.1039 26.9044 24.7499 27.1366C24.396 27.369 23.9867 27.5348 23.5222 27.6345C23.0575 27.7338 22.571 27.7836 22.0621 27.7836H16.4876Z" fill="white"/>
        </g>


    <g id="vector1">
        <path d="M511 384.682H0V385.88H511V384.682Z" fill="#343D68"/>
        <path d="M320.611 179.535C320.611 179.535 297.691 197.689 309.151 201.815C320.611 205.941 327.979 186.962 327.979 186.962L320.611 179.535Z" fill="#E9C1A1"/>
        <path d="M321.43 172.934L316.518 181.186C316.518 181.186 324.704 181.186 326.341 193.563L332.89 185.311L321.43 172.934Z" fill="#CFCCE0"/>
        <path d="M430.302 361.077L431.121 385.833L421.297 391.609L417.205 389.134L418.023 361.077H430.302Z" fill="#E9C1A1"/>
        <path d="M372.182 354.476L373.819 380.882L350.899 390.784L352.536 376.756C352.536 376.756 359.085 366.028 357.448 354.476H372.182Z" fill="#E9C1A1"/>
        <path d="M407.381 155.605C407.381 155.605 420.479 190.263 422.935 211.718C425.39 233.173 429.483 290.111 429.483 290.111L437.669 363.553L414.749 366.853L404.926 292.586L382.824 219.144L377.912 292.586L373.819 359.427L352.536 360.252L350.899 290.936L341.895 202.641L346.806 160.556L407.381 155.605Z" fill="#2F2E41"/>
        <path d="M419.66 387.483C419.66 387.483 421.003 373.624 430.973 381.379L432.758 380.056L440.943 398.211C440.943 398.211 450.766 412.239 433.576 413.889C416.386 415.54 418.023 398.211 418.023 398.211L416.386 390.784L417.204 385.921L419.66 387.483Z" fill="#2F2E41"/>
        <path d="M372.182 370.979C374.197 372.141 375.867 373.824 377.019 375.856C378.17 377.887 378.761 380.192 378.731 382.532C378.731 390.784 377.912 391.609 377.912 391.609L365.634 394.91C365.634 394.91 357.448 394.085 352.536 399.036C347.625 403.987 323.067 407.288 323.067 400.686C323.067 394.085 343.532 383.357 343.532 383.357C343.532 383.357 349.609 373.011 353.938 374.058C358.266 375.105 359.904 376.756 359.904 377.581C359.904 378.406 357.448 384.182 357.448 384.182C357.448 384.182 371.364 380.882 372.182 370.979Z" fill="#2F2E41"/>
        <path d="M370.545 54.1062C381.847 54.1062 391.01 44.87 391.01 33.4764C391.01 22.0829 381.847 12.8467 370.545 12.8467C359.243 12.8467 350.08 22.0829 350.08 33.4764C350.08 44.87 359.243 54.1062 370.545 54.1062Z" fill="#E9C1A1"/>
        <path d="M385.689 38.8401L394.693 59.4698L370.136 94.953C370.136 94.953 368.499 56.1691 363.587 49.5676C358.676 42.966 385.689 38.8401 385.689 38.8401Z" fill="#E9C1A1"/>
        <path d="M374.229 81.7502L378.322 71.0228L381.596 71.8477L385.689 68.5469L391.419 50.3929L399.605 56.1691L410.246 164.269L343.941 165.919L352.946 90.8272L361.132 69.3724L367.04 61.4978L370.954 73.4981L374.229 81.7502Z" fill="#CFCCE0"/>
        <path d="M393.056 127.961L395.561 53.3157C395.561 53.3157 400.423 53.6936 402.061 56.1692C403.698 58.6448 430.711 63.5959 430.711 63.5959L425.8 140.339C425.8 140.339 446.264 201.403 438.897 204.704C431.53 208.004 418.432 207.179 418.432 207.179L393.056 127.961Z" fill="#575A89"/>
        <path d="M353.355 118.471L362.039 68.1632L342.713 81.3375L347.625 117.646L343.532 142.402C343.532 142.402 327.979 210.892 332.89 213.368C337.802 215.844 343.532 213.368 343.532 213.368L353.355 144.052V118.471Z" fill="#575A89"/>
        <path d="M348.443 79.687L342.713 81.3374L340.257 114.345L336.164 143.227L316.518 178.71C316.518 178.71 326.341 172.108 330.434 191.088L352.07 153.115L348.443 79.687Z" fill="#575A89"/>
        <path d="M412.293 172.934C412.293 172.934 389.373 191.088 400.833 195.214C412.293 199.34 419.66 180.36 419.66 180.36L412.293 172.934Z" fill="#E9C1A1"/>
        <path d="M426.209 182.011L418.842 191.088L409.019 173.759L413.111 166.332L426.209 182.011Z" fill="#CFCCE0"/>
        <path d="M424.572 66.484L431.12 63.1832C431.12 63.1832 436.032 69.7847 436.85 75.5611C437.669 81.3374 441.762 88.7641 441.762 92.8901C441.762 97.016 453.222 135.8 453.222 135.8L427.027 189.437C427.027 189.437 421.297 169.633 409.019 167.982L429.483 139.101L418.023 118.471L424.572 66.484Z" fill="#575A89"/>
        <path d="M387.677 13.8207L391.536 12.2632C391.536 12.2632 383.467 3.30807 372.241 4.08681L375.398 0.582582C375.398 0.582582 367.68 -2.53223 360.664 5.64419C356.975 9.94234 352.708 14.9946 350.047 20.6859H345.914L347.639 24.5146L341.602 28.3432L347.799 27.6555C347.429 29.7521 347.373 31.8925 347.63 34.006C347.896 36.1201 348.967 38.0474 350.615 39.3812C350.615 39.3812 355.401 29.3948 355.401 27.8374V31.7309C355.401 31.7309 359.26 28.2267 359.26 25.8906L361.365 28.6161L362.418 24.3332L375.398 28.6161L373.293 25.1119L381.362 26.28L378.205 21.997C378.205 21.997 387.326 27.0586 387.677 31.3416C388.028 35.6244 390.698 39.6827 390.698 39.6827C390.698 39.6827 397.851 19.6609 387.677 13.8207Z" fill="#2F2E41"/>
        <path d="M387.326 33.0638C388.592 33.0638 389.618 31.7707 389.618 30.1756C389.618 28.5806 388.592 27.2875 387.326 27.2875C386.06 27.2875 385.034 28.5806 385.034 30.1756C385.034 31.7707 386.06 33.0638 387.326 33.0638Z" fill="#E9C1A1"/>
        <path d="M94.7215 170.076H24.0573V150.115H60.9428L94.7215 170.076Z" fill="#4F47C8"/>
        <path d="M23.8633 167.336V225.655H253.328V167.336H23.8633ZM113.359 215.87H38.8115V207.651H113.359V215.87ZM238.38 200.605H38.8115V192.386H238.38V200.605ZM238.38 185.341H38.8115V177.121H238.38V185.341Z" fill="#343D68"/>
        <path d="M94.7215 75.7494H24.0573V55.7878H60.9428L94.7215 75.7494Z" fill="#4F47C8"/>
        <path d="M23.8633 74.1837V132.502H253.328V74.1837H23.8633ZM113.359 122.717H38.8115V114.498H113.359V122.717ZM156.456 107.453H38.8115V99.2332H156.456L156.456 107.453ZM238.38 92.188H38.8115V83.9687H238.38V92.188Z" fill="#343D68"/>
        <path d="M94.7215 262.446H24.0573V242.485H60.9428L94.7215 262.446Z" fill="#4F47C8"/>
        <path d="M23.8633 258.532V316.851H253.328V258.532H23.8633ZM156.456 307.066H38.8115V298.846H156.456V307.066ZM156.456 291.801H38.8115V283.582H156.456V291.801ZM238.38 276.537H38.8115V268.317H238.38V276.537Z" fill="#343D68"/>
        <path d="M318.363 119.586H285.748V86.7084H307.88V87.4911H286.525V118.803H317.586V103.147H318.363V119.586Z" fill="#343D68"/>
        <path d="M301.888 111.01C301.134 108.767 291.683 101.141 297.474 99.8593L302.224 106.243L324.059 84.2317L326.256 86.4455L301.888 111.01Z" fill="#4F47C8"/>
        <path d="M318.363 212.739H285.748V179.861H307.88V180.644H286.525V211.956H317.586V196.3H318.363V212.739Z" fill="#343D68"/>
        <path d="M301.888 204.163C301.134 201.92 291.683 194.294 297.474 193.012L302.224 199.396L324.059 177.384L326.256 179.598L301.888 204.163Z" fill="#4F47C8"/>
        <path d="M318.363 305.5H285.748V272.623H307.88V273.406H286.525V304.717H317.586V289.061H318.363V305.5Z" fill="#343D68"/>
        <path d="M301.888 296.925C301.134 294.681 291.683 287.055 297.474 285.774L302.224 292.157L324.059 270.146L326.256 272.36L301.888 296.925Z" fill="#4F47C8"/>
    </g>



    <!--Contact me-->
    <g id="man">
        <path d="M485.871 398.884L368.234 399.314C337.025 388.96 311.456 352.998 311.294 299.08C311.263 290.957 311.818 282.845 312.956 274.82L407.707 251.316L480.802 233.186C486.188 238.512 491.207 244.273 495.817 250.423L425.921 291.173L392.948 310.397L430 296.284L506.902 266.991C511.698 275.087 515.971 283.546 519.69 292.305L496.487 318.782L522.735 299.809C522.847 300.099 522.959 300.391 523.07 300.682C539.705 344.286 519.065 398.762 485.871 398.884Z" fill="#DEDDDD"/>
        <path d="M466.539 220.982C448.749 226.624 426.878 233.751 404.391 241.159C371.878 251.874 338.079 263.18 313.472 271.445L313.488 271.349C314.397 265.549 316.536 260.069 319.729 255.355C337.957 229.187 361.167 210.907 386.999 204.119H387.002C394.266 202.205 401.706 201.225 409.173 201.198C429.726 201.123 449.193 208.24 466.539 220.982Z" fill="#DEDDDD"/>
        <path d="M129.793 317.363L109.454 384.619L104.46 401.143C102.056 405.154 99.1908 408.804 95.9358 412H95.4585C69.8336 412 46.5643 410.544 29.4177 408.181L31.8041 387.98L36.926 344.653L43.4747 289.166C47.346 286.38 51.3996 283.916 55.602 281.794L61.3757 339.343L64.1009 366.492L64.8913 337.423L66.5284 277.085C71.6915 275.241 76.9717 273.824 82.3253 272.846L90.9012 294.436L86.8467 272.121C87.0212 272.098 87.1958 272.07 87.3702 272.047C113.406 268.585 136.937 293.722 129.793 317.363Z" fill="#DEDDDD"/>
        <path d="M34.1033 296.975C33.1385 310.716 32.0556 327.642 30.9778 345.067C30.0746 359.715 29.1816 374.708 28.3758 388.444C27.9755 395.295 27.5957 401.834 27.2519 407.864C24.3368 407.439 21.6116 406.98 19.102 406.504C16.6261 401.649 14.5099 396.582 12.774 391.351C8.36031 378.052 6.67182 364.106 8.15502 350.331V350.325C8.75136 344.771 9.8623 339.298 11.4704 333.994C15.8553 319.628 23.6753 306.837 34.1033 296.975Z" fill="#DEDDDD"/>
        <path d="M190.917 398.236C190.917 405.818 148.433 411.96 95.9358 412H95.4585C69.8336 412 46.5643 410.544 29.4176 408.181C28.6837 408.073 27.9601 407.971 27.2519 407.863C24.3368 407.438 21.6116 406.98 19.102 406.504C7.10807 404.197 0 401.336 0 398.236C0 395.726 4.64975 393.38 12.774 391.351C17.0645 390.28 22.3198 389.306 28.3758 388.444C29.4895 388.28 30.6323 388.125 31.8041 387.98C48.6941 385.798 71.0037 384.472 95.4585 384.472C100.211 384.472 104.886 384.523 109.454 384.619C155.536 385.594 190.917 391.317 190.917 398.236Z" fill="#3F3D56"/>
        <path d="M76.946 277.741L79.3445 298.397C79.3445 298.397 80.304 305.283 81.2634 308.99C81.2634 308.99 80.304 328.587 87.9792 342.358L92.7762 352.422L93.7356 367.252L105.728 368.841L103.33 346.595C103.33 346.595 102.37 336.002 103.33 331.765C104.289 327.528 98.5326 307.931 98.5326 307.931C98.5326 307.931 106.208 280.389 100.451 273.504C94.695 266.618 76.946 277.741 76.946 277.741Z" fill="#DAAB85"/>
        <path d="M98.0529 363.015C98.0529 363.015 92.7762 363.015 92.2965 364.604C91.8168 366.193 84.1416 380.493 84.1416 380.493C84.1416 380.493 77.4258 392.145 87.0198 392.675C96.6138 393.205 99.492 388.438 99.492 388.438C99.492 388.438 108.127 373.078 108.606 370.43C109.086 367.782 105.002 362.106 105.002 362.106C105.002 362.106 99.492 366.193 98.0529 363.015Z" fill="#2F2E41"/>
        <path d="M104.769 103.486C113.776 103.486 121.079 95.4235 121.079 85.4779C121.079 75.5323 113.776 67.4698 104.769 67.4698C95.761 67.4698 88.4589 75.5323 88.4589 85.4779C88.4589 95.4235 95.761 103.486 104.769 103.486Z" fill="#DAAB85"/>
        <path d="M91.577 91.0392C91.577 91.0392 91.577 110.636 85.3408 112.225C79.1047 113.814 93.9755 131.822 102.13 129.704C110.285 127.585 113.643 113.284 113.643 113.284C113.643 113.284 106.448 103.221 109.326 97.9246C112.204 92.6281 91.577 91.0392 91.577 91.0392Z" fill="#DAAB85"/>
        <path d="M98.5326 118.316C96.2429 118.237 94.0036 117.554 92.0016 116.325C89.9996 115.095 88.293 113.355 87.0244 111.249C87.0244 111.249 80.3039 112.49 79.3446 113.02C78.3852 113.549 61.5956 119.375 57.758 131.557L73.1084 153.273C73.1084 153.273 69.7505 183.993 73.1084 197.764C75.108 206.012 74.6025 214.757 71.6693 222.657C71.6693 222.657 70.2302 223.187 72.6287 224.246C75.0273 225.306 130.193 213.124 131.152 209.946C132.112 206.768 130.193 206.768 131.632 205.179C133.071 203.59 136.909 194.056 133.071 190.878C129.234 187.7 126.835 152.743 126.835 152.743L136.909 124.672C136.909 124.672 118.498 108.426 111.873 110.458C111.873 110.458 110.525 118.316 98.5326 118.316Z" fill="#D0CDE6"/>
        <path d="M104.769 267.148C104.769 267.148 103.809 290.453 105.728 299.457C107.647 308.461 107.647 312.168 107.647 312.168C107.647 312.168 104.769 327.528 106.208 341.829C107.647 356.129 104.529 379.18 104.529 379.18L116.282 383.141L123.477 342.888C123.477 342.888 129.233 317.994 125.876 306.342C125.876 306.342 127.794 270.855 129.233 267.148C130.673 263.44 104.769 267.148 104.769 267.148Z" fill="#DAAB85"/>
        <path d="M91.8967 88.6851C92.1129 86.996 92.5702 85.1534 93.8747 84.2392C95.229 83.2902 96.9772 83.6795 98.5769 83.8087C100.177 83.9378 102.137 83.4961 102.663 81.8229C102.991 80.7797 102.636 79.5329 103.148 78.584C103.962 77.0739 106.447 77.2462 106.876 75.5538C107.011 75.0178 106.879 74.4195 107.075 73.9067C107.34 73.2149 108.082 72.9391 108.744 72.7697C111.167 72.1509 113.655 71.9088 116.138 72.0503C116.382 72.0984 116.632 72.0436 116.84 71.897C116.95 71.777 117.028 71.6266 117.067 71.4616C117.628 69.6071 117.033 67.5029 115.916 65.986C114.729 64.5251 113.265 63.3704 111.628 62.6036C108.005 60.6634 104.077 59.511 100.06 59.2091C96.9999 58.9969 93.788 59.3647 91.1818 61.1474C90.4093 61.6869 89.6925 62.3178 89.044 63.029C86.2088 66.1682 84.3603 70.2287 83.77 74.6139C83.1976 78.9886 83.6409 83.4522 85.0584 87.5859C85.8865 90.0744 87.1926 92.6445 89.2135 94.178C90.2967 94.9999 91.2306 95.7586 91.6804 94.363C92.1574 92.8831 91.6867 90.3251 91.8967 88.6851Z" fill="#2F2E41"/>
        <path d="M74.0678 219.479C74.0678 219.479 66.8723 230.072 68.3114 237.488C69.7505 244.903 75.0272 257.085 75.0272 257.085C75.0272 257.085 72.149 280.919 76.946 280.919C81.743 280.919 102.37 279.86 102.85 277.211C103.33 274.563 101.411 248.081 101.411 248.081C101.411 248.081 103.809 271.385 105.248 271.385C106.688 271.385 131.632 274.033 132.591 272.444C133.551 270.855 135.47 230.072 135.47 230.072C135.47 230.072 138.086 210.838 129.822 208.273C121.558 205.708 74.0678 219.479 74.0678 219.479Z" fill="#2F2E41"/>
        <path d="M112.444 378.904C112.444 378.904 103.809 373.608 103.33 377.845C102.85 382.082 97.5732 397.442 97.5732 397.442C97.5732 397.442 92.2965 409.624 103.809 410.153C115.322 410.683 118.2 404.857 118.2 402.209C118.2 399.56 116.91 381.392 116.91 381.392L112.444 378.904Z" fill="#2F2E41"/>
        <path d="M142.185 153.273L144.584 176.578C144.584 176.578 147.462 189.289 145.543 194.586C143.625 199.882 136.429 224.246 136.429 224.246C136.429 224.246 134.51 211.005 129.713 209.416L132.591 179.226C132.591 179.226 125.723 160.387 127.239 157.889C128.754 155.392 142.185 153.273 142.185 153.273Z" fill="#DAAB85"/>
        <path d="M56.7986 154.862L57.758 176.048C57.758 176.048 54.4001 194.586 61.1159 214.183L62.0753 222.657L68.3114 235.899C68.3114 235.899 69.7505 223.187 72.6287 223.187C72.6287 223.187 69.7505 214.713 70.7099 209.946C71.6693 205.179 70.2302 179.756 70.2302 179.756L72.6287 159.189L56.7986 154.862Z" fill="#DAAB85"/>
        <path d="M131.632 124.142H136.909C136.909 124.142 149.381 155.921 144.584 156.451C139.787 156.981 124.436 161.218 123.957 159.099C123.477 156.981 131.632 124.142 131.632 124.142Z" fill="#D0CDE6"/>
        <path d="M62.0753 126.791L57.758 131.557C57.758 131.557 52.0016 155.392 56.3189 158.04C60.6362 160.688 76.946 163.866 77.9054 161.747C78.8649 159.629 62.0753 126.791 62.0753 126.791Z" fill="#D0CDE6"/>
        <path d="M405.997 16.5068V383.814C405.993 388.189 404.416 392.384 401.613 395.477C398.81 398.57 395.01 400.308 391.047 400.309H255.993C254.03 400.313 252.085 399.889 250.271 399.061C248.456 398.234 246.807 397.019 245.418 395.487C244.029 393.954 242.928 392.134 242.177 390.131C241.427 388.128 241.041 385.981 241.043 383.814V16.5069C241.043 14.3391 241.43 12.1926 242.181 10.1898C242.932 8.18702 244.033 6.36726 245.422 4.83444C246.81 3.30161 248.458 2.08574 250.272 1.25627C252.086 0.426795 254.03 -3.41908e-05 255.993 0.000153362H276.204V2.86177C276.203 6.4663 277.5 9.92341 279.808 12.4727C282.116 15.0221 285.246 16.4548 288.511 16.4559H357.2C359.828 16.462 362.387 15.532 364.498 13.8039C364.925 13.4612 365.329 13.0863 365.709 12.6819C366.911 11.4143 367.868 9.89028 368.521 8.20222C369.174 6.51417 369.509 4.69728 369.507 2.86177V0.000153362H391.047C393.01 -0.000510774 394.954 0.425993 396.768 1.2553C398.583 2.0846 400.231 3.30045 401.619 4.83336C403.008 6.36628 404.109 8.18623 404.86 10.1892C405.611 12.1922 405.997 14.339 405.997 16.5068Z" fill="#3F3D56"/>
        <path opacity="0.1" d="M342.316 156.194C363.575 156.194 380.808 152.389 380.808 147.695C380.808 143 363.575 139.195 342.316 139.195C321.058 139.195 303.825 143 303.825 147.695C303.825 152.389 321.058 156.194 342.316 156.194Z" fill="black"/>
        <path opacity="0.1" d="M286.376 199.827C307.634 199.827 324.867 196.021 324.867 191.327C324.867 186.633 307.634 182.827 286.376 182.827C265.117 182.827 247.884 186.633 247.884 191.327C247.884 196.021 265.117 199.827 286.376 199.827Z" fill="black"/>
        <path opacity="0.1" d="M318.195 279.726C339.453 279.726 356.686 275.92 356.686 271.226C356.686 266.531 339.453 262.726 318.195 262.726C296.937 262.726 279.704 266.531 279.704 271.226C279.704 275.92 296.937 279.726 318.195 279.726Z" fill="black"/>
        <path opacity="0.1" d="M307.417 366.424C328.676 366.424 345.909 362.618 345.909 357.924C345.909 353.23 328.676 349.424 307.417 349.424C286.159 349.424 268.926 353.23 268.926 357.924C268.926 362.618 286.159 366.424 307.417 366.424Z" fill="black"/>
        <path d="M441.111 228.644H324.097V241.268V260.492V271.309L333.893 260.492H441.111V228.644Z" fill="#6C63FF"/>
        <path d="M162.177 147.328H279.19V159.952V179.177V189.994L269.394 179.177H162.177V147.328Z" fill="#6C63FF"/>
        <path d="M416.032 236.376H350.203V242.27H416.032V236.376Z" fill="white"/>
        <path d="M416.032 245.216H350.203V251.109H416.032V245.216Z" fill="white"/>
        <path d="M247.953 155.628H182.124V161.521H247.953V155.628Z" fill="white"/>
        <path d="M247.953 164.468H182.124V170.361H247.953V164.468Z" fill="white"/>
        <path d="M563 67.2294H342.316V91.038V127.295V147.695L360.792 127.295H563V67.2294Z" fill="#6C63FF"/>
        <path d="M528.614 80.8292H376.702V94.4289H528.614V80.8292Z" fill="white"/>
        <path d="M528.614 101.229H376.702V114.829H528.614V101.229Z" fill="white"/>
        <path d="M293.479 340.929C299.096 352.432 311.018 357.369 311.018 357.369C311.018 357.369 313.832 343.658 308.215 332.156C302.598 320.654 290.676 315.716 290.676 315.716C290.676 315.716 287.861 329.427 293.479 340.929Z" fill="white"/>
        <path d="M297.34 337.145C307.481 343.882 311.387 357.263 311.387 357.263C311.387 357.263 298.85 359.722 288.709 352.985C278.567 346.248 274.661 332.867 274.661 332.867C274.661 332.867 287.198 330.409 297.34 337.145Z" fill="#6C63FF"/>
    </g>



    <!--social-->

    <g id="linkedin">
        <path d="M27.2863 0H2.71374C1.215 0 0 1.215 0 2.71374V27.2862C0 28.785 1.215 30 2.71374 30H27.2862C28.785 30 30 28.785 30 27.2862V2.71374C30 1.215 28.785 0 27.2863 0ZM9.28327 25.904C9.28327 26.3402 8.92971 26.6937 8.49353 26.6937H5.13181C4.69563 26.6937 4.34207 26.3402 4.34207 25.904V11.8118C4.34207 11.3756 4.69563 11.022 5.13181 11.022H8.49353C8.92971 11.022 9.28327 11.3756 9.28327 11.8118V25.904ZM6.81267 9.69361C5.04887 9.69361 3.61901 8.26374 3.61901 6.49995C3.61901 4.73615 5.04887 3.30628 6.81267 3.30628C8.57647 3.30628 10.0063 4.73615 10.0063 6.49995C10.0063 8.26374 8.57654 9.69361 6.81267 9.69361ZM26.8516 25.9676C26.8516 26.3686 26.5264 26.6937 26.1254 26.6937H22.5181C22.1171 26.6937 21.7919 26.3686 21.7919 25.9676V19.3575C21.7919 18.3715 22.0812 15.0365 19.215 15.0365C16.9918 15.0365 16.5408 17.3192 16.4503 18.3436V25.9676C16.4503 26.3686 16.1252 26.6937 15.7242 26.6937H12.2352C11.8342 26.6937 11.5091 26.3686 11.5091 25.9676V11.7481C11.5091 11.3471 11.8342 11.022 12.2352 11.022H15.7242C16.1252 11.022 16.4503 11.3471 16.4503 11.7481V12.9776C17.2747 11.7404 18.4998 10.7855 21.1083 10.7855C26.8846 10.7855 26.8516 16.1821 26.8516 19.1472V25.9676Z" fill="white"/>
    </g>

    <g id="whatsapp">
        <path d="M4.40904 24.1866L4.83954 23.1821L4.22665 22.2772C2.76895 20.1251 2 17.6184 2 15C2 11.5238 3.34949 8.26561 5.80756 5.80759C8.26567 3.34953 11.5238 2 15 2C18.4762 2 21.7344 3.34954 24.1924 5.80756C26.6504 8.26569 28 11.5238 28 15C28 18.4762 26.6504 21.7343 24.1924 24.1924C21.7344 26.6505 18.4762 28 15 28C12.2899 28 9.71296 27.1818 7.51472 25.6292L6.55827 24.9537L5.50107 25.4571L3.44496 26.4362L4.40904 24.1866ZM0.500026 29.5001L0.500008 29.5L0.499976 29.5L0.500026 29.5001Z" stroke="white" stroke-width="4"/>
        <path d="M22.9917 20.0766L22.5421 17.6414C22.5049 17.4403 22.349 17.282 22.1485 17.2419L18.613 16.5348C18.4488 16.5021 18.2795 16.5534 18.1613 16.6716L16.7249 18.108C14.3049 17.0236 12.9617 15.6776 11.7798 13.1536L13.2116 11.7218C13.3298 11.6036 13.3811 11.4341 13.3483 11.2701L12.6412 7.73459C12.6011 7.53403 12.4428 7.37811 12.2417 7.34096L9.80646 6.89137C9.73978 6.87906 9.6711 6.88041 9.60489 6.89547C8.96189 7.0416 8.37519 7.36557 7.90825 7.83262C7.0996 8.64127 6.79058 9.82117 7.01458 11.2449C7.39064 13.6356 8.56198 16.9627 10.7229 19.1322L10.7523 19.1615C12.9204 21.321 16.2474 22.4924 18.6381 22.8685C18.9392 22.9159 19.2294 22.9394 19.5075 22.9394C20.5442 22.9394 21.4128 22.6124 22.0504 21.9748C22.5174 21.5078 22.8415 20.9211 22.9875 20.2781C23.0026 20.212 23.0041 20.1433 22.9917 20.0766Z" fill="white"/>
    </g>

    <g id="twitter">
        <path d="M0.57803 22.5003C1.84538 22.3455 3.13052 22.5122 4.39787 22.304C5.03446 22.2029 5.61758 21.9887 6.19472 21.7625C4.76679 20.8463 3.48153 19.7991 2.2857 18.5437C1.85732 18.0974 2.16666 17.3478 2.79145 17.33C3.30317 17.3537 3.80294 17.3122 4.29077 17.211C3.04718 15.6343 2.08333 13.9385 1.33366 12.0346C1.13142 11.5229 1.72634 11.0053 2.20833 11.1599C2.48795 11.273 2.77353 11.3503 3.06509 11.4098C2.17861 9.27972 1.99415 7.13186 2.48795 4.77565C2.60101 4.2342 3.31498 4.10335 3.67793 4.46033C6.52198 7.25661 10.1157 8.60133 13.9593 9.24389C13.6201 6.61404 15.4885 3.81763 17.9397 2.90129C19.9746 2.14566 22.7056 2.66335 24.0741 4.37686C24.9904 3.79972 26.2576 3.60929 27.2751 3.4308C27.8106 3.34149 28.3283 3.86515 28.0129 4.39465C27.644 5.01346 27.293 5.67381 26.9063 6.30457C27.6917 6.07246 28.5009 5.92967 29.31 5.82855C29.8931 5.75118 30.2441 6.64961 29.798 7.00659C28.8519 7.76222 27.9118 8.62495 26.9063 9.31516C26.8766 15.9968 24.925 21.6017 18.9573 25.4036C13.983 28.581 4.73694 28.0456 0.411481 23.72H0.40551C0.215076 23.6723 0.113953 23.5295 0.0782549 23.3749C-0.0882935 23.125 0.030614 22.8157 0.250775 22.6967C0.334114 22.5954 0.441208 22.518 0.57803 22.5003Z" fill="white"/>

    </g>

    <g id="gmail">
        <path d="M30 6.19559V23.8043C30 25.4282 28.6891 26.7391 27.0652 26.7391H2.93479C1.31086 26.7391 0 25.4282 0 23.8043V6.19559C0 6.14344 0 6.09124 0.00650391 6.03909C0.0847852 4.53909 1.27822 3.34559 2.77822 3.26737C2.83037 3.26086 2.88258 3.26086 2.93473 3.26086H27.0652C27.1173 3.26086 27.176 3.26086 27.2282 3.26737C28.7217 3.34565 29.9152 4.53909 29.9934 6.03258C30 6.08473 30 6.14344 30 6.19559Z" fill="white"/>
        <path d="M27.2283 3.26731C27.176 3.2608 27.1175 3.2608 27.0652 3.2608H15V26.7391H27.0652C28.6891 26.7391 30 25.4282 30 23.8043V6.19559C30 6.14344 30 6.08473 29.9935 6.03252C29.9152 4.53908 28.7217 3.34559 27.2283 3.26731Z" fill="white"/>
        <path d="M29.9935 6.03267C29.9152 4.53917 28.7218 3.34573 27.2283 3.26745C22.435 8.06072 19.7432 10.7525 15 15.4957C13.2006 13.6953 4.54746 5.03663 2.77828 3.2674C1.27828 3.34568 0.0847852 4.53911 0.0065625 6.03911C0 6.09132 0 6.14353 0 6.19568V23.8044C0 25.4283 1.31086 26.7392 2.93479 26.7392H3.91307V9.94568L13.6174 19.6435C13.9957 20.0283 14.4979 20.2175 15.0001 20.2175C15.5022 20.2175 16.0044 20.0283 16.3827 19.6435L26.0871 9.93917V26.7392H27.0653C28.6893 26.7392 30.0001 25.4283 30.0001 23.8044V6.19568C30 6.14353 30 6.08482 29.9935 6.03267Z" fill="#303030" fill-opacity="0.57"/>
        <path d="M16.3826 19.6435L26.0869 9.93917V26.7392H27.0652C28.6891 26.7392 30 25.4283 30 23.8044V6.19568C30 6.14353 30 6.08482 29.9935 6.03261C29.9152 4.53911 28.7218 3.34568 27.2283 3.2674C22.435 8.06072 19.7432 10.7525 15 15.4957V20.2174C15.5021 20.2174 16.0044 20.0283 16.3826 19.6435Z" fill="#303030" fill-opacity="0.57"/>

    </g>

    <g id="github">
        <path d="M15.4995 0.812317C7.21661 0.812317 0.5 7.55409 0.5 15.8728C0.5 22.5255 4.79726 28.1704 10.76 30.1615C11.5095 30.3004 11.7829 29.8354 11.7829 29.4357C11.7829 29.0786 11.7698 28.1317 11.7626 26.8746C7.58919 27.7857 6.70903 24.8559 6.70903 24.8559C6.02774 23.1159 5.04452 22.6538 5.04452 22.6538C3.68194 21.7189 5.1471 21.7368 5.1471 21.7368C6.65194 21.8428 7.44403 23.2896 7.44403 23.2896C8.78339 25.5909 10.956 24.9255 11.8105 24.5399C11.9455 23.5673 12.334 22.903 12.7623 22.527C9.43226 22.1462 5.93097 20.8552 5.93097 15.0851C5.93097 13.4413 6.515 12.0967 7.47452 11.0428C7.31919 10.662 6.80484 9.13151 7.62064 7.05861C7.62064 7.05861 8.88064 6.65409 11.7456 8.60216C12.9423 8.26828 14.2255 8.10135 15.5015 8.09457C16.7745 8.10135 18.0587 8.2678 19.2573 8.60216C22.1198 6.65409 23.3779 7.05861 23.3779 7.05861C24.1956 9.13151 23.6813 10.662 23.5265 11.0428C24.4884 12.0967 25.069 13.4409 25.069 15.0851C25.069 20.8697 21.5619 22.1423 18.2203 22.5159C18.7589 22.9809 19.2384 23.8993 19.2384 25.3049C19.2384 27.3188 19.2205 28.9417 19.2205 29.4357C19.2205 29.8393 19.491 30.3081 20.2516 30.1596C26.2066 28.1646 30.5 22.5236 30.5 15.8728C30.5 7.55409 23.7834 0.812317 15.4995 0.812317Z" fill="white"/>
        <path d="M15.4995 0.812317C7.21661 0.812317 0.5 7.55409 0.5 15.8728C0.5 22.5255 4.79726 28.1704 10.76 30.1615C11.5095 30.3004 11.7829 29.8354 11.7829 29.4357C11.7829 29.0786 11.7698 28.1317 11.7626 26.8746C7.58919 27.7857 6.70903 24.8559 6.70903 24.8559C6.02774 23.1159 5.04452 22.6538 5.04452 22.6538C3.68194 21.7189 5.1471 21.7368 5.1471 21.7368C6.65194 21.8428 7.44403 23.2896 7.44403 23.2896C8.78339 25.5909 10.956 24.9255 11.8105 24.5399C11.9455 23.5673 12.334 22.903 12.7623 22.527C9.43226 22.1462 5.93097 20.8552 5.93097 15.0851C5.93097 13.4413 6.515 12.0967 7.47452 11.0428C7.31919 10.662 6.80484 9.13151 7.62064 7.05861C7.62064 7.05861 8.88064 6.65409 11.7456 8.60216C12.9423 8.26828 14.2255 8.10135 15.5015 8.09457C16.7745 8.10135 18.0587 8.2678 19.2573 8.60216C22.1198 6.65409 23.3779 7.05861 23.3779 7.05861C24.1956 9.13151 23.6813 10.662 23.5265 11.0428C24.4884 12.0967 25.069 13.4409 25.069 15.0851C25.069 20.8697 21.5619 22.1423 18.2203 22.5159C18.7589 22.9809 19.2384 23.8993 19.2384 25.3049C19.2384 27.3188 19.2205 28.9417 19.2205 29.4357C19.2205 29.8393 19.491 30.3081 20.2516 30.1596C26.2066 28.1646 30.5 22.5236 30.5 15.8728C30.5 7.55409 23.7834 0.812317 15.4995 0.812317Z" fill="white"/>
        <path d="M23.3929 7.10059C24.1869 9.15123 23.6803 10.6648 23.526 11.0427C24.4879 12.0966 25.0686 13.4407 25.0686 15.0849C25.0686 20.8696 21.5615 22.1422 18.2198 22.5157C18.7584 22.9807 19.2379 23.8991 19.2379 25.3048C19.2379 27.3187 19.22 28.9416 19.22 29.4356C19.22 29.8391 19.4905 30.308 20.2511 30.1595C26.2066 28.1645 30.5 22.5235 30.5 15.8727C30.5 14.0848 30.1884 12.3709 29.6189 10.7799C27.5508 8.60252 25.249 7.15236 23.3929 7.10059Z" fill="white"/>
        <path d="M12.1719 23.3219C12.3403 22.9823 12.546 22.7181 12.7623 22.5269C10.9371 22.3179 9.06258 21.8306 7.73919 20.486C8.75726 22.1805 10.415 22.9513 12.1719 23.3219Z" fill="white"/>
        <path d="M1.28097 16.888C1.28097 8.56925 7.99758 1.82748 16.2805 1.82748C20.8797 1.82748 24.9935 3.90764 27.7444 7.17958C25.0274 3.32796 20.5574 0.812317 15.4995 0.812317C7.21661 0.812317 0.5 7.55409 0.5 15.8728C0.5 19.5817 1.8379 22.9751 4.05355 25.5981C2.31113 23.1386 1.28097 20.1357 1.28097 16.888Z" fill="white"/>
        <path d="M20.0189 26.3205C20.0189 24.9154 19.5394 23.9955 19.0008 23.5305C22.3424 23.158 25.85 21.8844 25.85 16.1002C25.85 14.456 25.2694 13.1123 24.3065 12.0584C24.4623 11.6776 24.9776 10.1467 24.1579 8.07425C24.1579 8.07425 24.0021 8.02634 23.6803 8.04473C24.0316 9.60763 23.6552 10.7254 23.526 11.0428C24.4879 12.0967 25.0685 13.4409 25.0685 15.0851C25.0685 20.8697 21.5615 22.1423 18.2198 22.5159C18.7584 22.9809 19.2379 23.8992 19.2379 25.3049C19.2379 27.3188 19.22 28.9417 19.22 29.4357C19.22 29.7909 19.4315 30.1959 20.0015 30.1862C20.0053 29.5054 20.0189 28.06 20.0189 26.3205Z" fill="white"/>
        <path d="M7.60468 26.1448C7.91968 26.7932 8.97839 28.3464 11.7713 28.0193C11.7674 27.6777 11.7645 27.295 11.7626 26.8745C9.6079 27.3448 8.33581 26.7903 7.60468 26.1448Z" fill="white"/>
        <path d="M8.14323 24.1726C8.04694 24.0274 7.86645 23.7811 7.60468 23.5349C7.77452 23.7869 7.955 23.9984 8.14323 24.1726Z" fill="white"/>
    </g>

</svg>




